<?xml version="1.0" encoding="UTF-8"?>
<svg xmlns="http://www.w3.org/2000/svg" width="557.471" height="557.471">
	<path fill="#00487c" d="M537.911 30.156h-5.704c-3.151 0-5.703 2.674-5.703 5.979v5.979c0 10.802-8.758 19.56-19.56 19.56h-52.161c-10.802 0-19.56-8.758-19.56-19.56v-5.979c0-3.299-2.552-5.979-5.704-5.979H133.667h-5.704c-3.152 0-5.704 2.674-5.704 5.979v5.979c0 10.802-8.758 19.56-19.56 19.56h-52.16c-10.802 0-19.559-8.758-19.559-19.56v-5.979c0-3.299-2.552-5.979-5.704-5.979H19.56C8.757 30.156 0 38.914 0 49.716v457.501c0 10.802 8.757 19.56 19.56 19.56h5.704c3.152 0 5.704-2.675 5.704-5.979v-5.979c0-10.802 8.758-19.56 19.56-19.56h52.161c4.443 0 8.531 1.487 11.812 3.99 2.687 2.051 4.217 7.143 4.217 10.521v11.426a6.122 6.122 0 0 0 6.12 6.12h307.799a6.122 6.122 0 0 0 6.12-6.12V509.77c0-3.378 1.53-8.47 4.217-10.521a19.392 19.392 0 0 1 11.812-3.99h52.161c10.802 0 19.56 8.758 19.56 19.56v5.979c0 3.304 2.552 5.979 5.703 5.979h5.704c10.802 0 19.56-8.758 19.56-19.56V49.716c.003-10.802-8.755-19.56-19.563-19.56zM122.253 433.317c0 10.802-8.758 19.56-19.56 19.56h-52.16c-10.802 0-19.56-8.758-19.56-19.56v-52.161c0-10.802 8.758-19.56 19.56-19.56h52.161c10.802 0 19.56 8.758 19.56 19.56v52.161zm0-130.405c0 10.802-8.758 19.56-19.56 19.56h-52.16c-10.802 0-19.56-8.758-19.56-19.56v-52.16c0-10.802 8.758-19.56 19.56-19.56h52.161c10.802 0 19.56 8.757 19.56 19.56v52.16zm0-130.398c0 10.802-8.758 19.56-19.56 19.56h-52.16c-10.802 0-19.56-8.758-19.56-19.56v-52.161c0-10.802 8.758-19.56 19.56-19.56h52.161c10.802 0 19.56 8.758 19.56 19.56v52.161zm281.453 285.657a6.123 6.123 0 0 1-6.12 6.12H159.885a6.123 6.123 0 0 1-6.12-6.12V321.529a6.123 6.123 0 0 1 6.12-6.12h237.701a6.123 6.123 0 0 1 6.12 6.12v136.642zm0-227.12a6.123 6.123 0 0 1-6.12 6.12H159.885a6.123 6.123 0 0 1-6.12-6.12V99.845a6.123 6.123 0 0 1 6.12-6.12h237.701a6.123 6.123 0 0 1 6.12 6.12v131.206zm122.798 202.266c0 10.802-8.758 19.56-19.56 19.56h-52.161c-10.802 0-19.56-8.758-19.56-19.56v-52.161c0-10.802 8.758-19.56 19.56-19.56h52.161c10.802 0 19.56 8.758 19.56 19.56v52.161zm0-130.405c0 10.802-8.758 19.56-19.56 19.56h-52.161c-10.802 0-19.56-8.758-19.56-19.56v-52.16c0-10.802 8.758-19.56 19.56-19.56h52.161c10.802 0 19.56 8.757 19.56 19.56v52.16zm0-130.398c0 10.802-8.758 19.56-19.56 19.56h-52.161c-10.802 0-19.56-8.758-19.56-19.56v-52.161c0-10.802 8.758-19.56 19.56-19.56h52.161c10.802 0 19.56 8.758 19.56 19.56v52.161z"/>
</svg>
